HIERARCHY
ROOT hip
{
  OFFSET 0 0 0
  CHANNELS 6 Xposition Yposition Zposition Zrotation Yrotation Xrotation
  JOINT abdomen
  {
    OFFSET 0 20.6881 -0.73152
    CHANNELS 3 Zrotation Xrotation Yrotation
    JOINT chest
    {
      OFFSET 0 11.7043 -0.48768
      CHANNELS 3 Zrotation Xrotation Yrotation
      JOINT neck
      {
        OFFSET 0 22.1894 -2.19456
        CHANNELS 3 Zrotation Xrotation Yrotation
        JOINT head
        {
          OFFSET -0.24384 7.07133 1.2192
          CHANNELS 3 Zrotation Xrotation Yrotation
          JOINT leftEye
          {
            OFFSET 4.14528 8.04674 8.04672
            CHANNELS 3 Zrotation Xrotation Yrotation
            End Site
            {
              OFFSET 1 0 0
            }
          }
          JOINT rightEye
          {
            OFFSET -3.6576 8.04674 8.04672
            CHANNELS 3 Zrotation Xrotation Yrotation
            End Site
            {
              OFFSET 1 0 0
            }
          }
        }
      }
      JOINT rCollar
      {
        OFFSET -2.68224 19.2634 -4.8768
        CHANNELS 3 Zrotation Xrotation Yrotation
        JOINT rShldr
        {
          OFFSET -8.77824 -1.95073 1.46304
          CHANNELS 3 Zrotation Xrotation Yrotation
          JOINT rForeArm
          {
            OFFSET -28.1742 -1.7115 0.48768
            CHANNELS 3 Zrotation Xrotation Yrotation
            JOINT rHand
            {
              OFFSET -22.5879 0.773209 7.07136
              CHANNELS 3 Zrotation Xrotation Yrotation
              JOINT rThumb1
              {
                OFFSET -1.2192 -0.487915 3.41376
                CHANNELS 3 Zrotation Xrotation Yrotation
                JOINT rThumb2
                {
                  OFFSET -3.37035 -0.52449 3.41376
                  CHANNELS 3 Zrotation Xrotation Yrotation
                  End Site
                  {
                    OFFSET -1.78271 -1.18214 1.43049
                  }
                }
              }
              JOINT rIndex1
              {
                OFFSET -7.75947 0.938293 5.60832
                CHANNELS 3 Zrotation Xrotation Yrotation
                JOINT rIndex2
                {
                  OFFSET -2.54057 -0.884171 1.56538
                  CHANNELS 3 Zrotation Xrotation Yrotation
                  End Site
                  {
                    OFFSET -1.62519 -0.234802 1.16502
                  }
                }
              }
              JOINT rMid1
              {
                OFFSET -8.24714 1.18213 3.41376
                CHANNELS 3 Zrotation Xrotation Yrotation
                JOINT rMid2
                {
                  OFFSET -3.10165 -0.590103 1.0647
                  CHANNELS 3 Zrotation Xrotation Yrotation
                  End Site
                  {
                    OFFSET -2.48547 -0.328903 0.83742
                  }
                }
              }
              JOINT rRing1
              {
                OFFSET -8.82822 0.546677 1.51678
                CHANNELS 3 Zrotation Xrotation Yrotation
                JOINT rRing2
                {
                  OFFSET -2.60934 -0.819778 -0.0198488
                  CHANNELS 3 Zrotation Xrotation Yrotation
                  End Site
                  {
                    OFFSET -2.33842 -0.294052 0.168128
                  }
                }
              }
              JOINT rPinky1
              {
                OFFSET -8.27202 -0.0477905 -0.4584
                CHANNELS 3 Zrotation Xrotation Yrotation
                JOINT rPinky2
                {
                  OFFSET -1.82734 -0.647385 -0.700984
                  CHANNELS 3 Zrotation Xrotation Yrotation
                  End Site
                  {
                    OFFSET -1.69225 -0.51767 -0.607171
                  }
                }
              }
            }
          }
        }
      }
      JOINT lCollar
      {
        OFFSET 2.68224 19.2634 -4.8768
        CHANNELS 3 Zrotation Xrotation Yrotation
        JOINT lShldr
        {
          OFFSET 8.77824 -1.95073 1.46304
          CHANNELS 3 Zrotation Xrotation Yrotation
          JOINT lForeArm
          {
            OFFSET 28.1742 -1.7115 0.48768
            CHANNELS 3 Zrotation Xrotation Yrotation
            JOINT lHand
            {
              OFFSET 22.5879 0.773209 7.07136
              CHANNELS 3 Zrotation Xrotation Yrotation
              JOINT lThumb1
              {
                OFFSET 1.2192 -0.487915 3.41376
                CHANNELS 3 Zrotation Xrotation Yrotation
                JOINT lThumb2
                {
                  OFFSET 3.37035 -0.52449 3.41376
                  CHANNELS 3 Zrotation Xrotation Yrotation
                  End Site
                  {
                    OFFSET 1.78271 -1.18214 1.43049
                  }
                }
              }
              JOINT lIndex1
              {
                OFFSET 7.75947 0.938293 5.60832
                CHANNELS 3 Zrotation Xrotation Yrotation
                JOINT lIndex2
                {
                  OFFSET 2.54057 -0.884171 1.56538
                  CHANNELS 3 Zrotation Xrotation Yrotation
                  End Site
                  {
                    OFFSET 1.62519 -0.234802 1.16502
                  }
                }
              }
              JOINT lMid1
              {
                OFFSET 8.24714 1.18213 3.41376
                CHANNELS 3 Zrotation Xrotation Yrotation
                JOINT lMid2
                {
                  OFFSET 3.10165 -0.590103 1.0647
                  CHANNELS 3 Zrotation Xrotation Yrotation
                  End Site
                  {
                    OFFSET 2.48547 -0.328903 0.83742
                  }
                }
              }
              JOINT lRing1
              {
                OFFSET 8.82822 0.546677 1.51678
                CHANNELS 3 Zrotation Xrotation Yrotation
                JOINT lRing2
                {
                  OFFSET 2.60934 -0.819778 -0.0198488
                  CHANNELS 3 Zrotation Xrotation Yrotation
                  End Site
                  {
                    OFFSET 2.33842 -0.294052 0.168128
                  }
                }
              }
              JOINT lPinky1
              {
                OFFSET 8.27202 -0.0477905 -0.4584
                CHANNELS 3 Zrotation Xrotation Yrotation
                JOINT lPinky2
                {
                  OFFSET 1.82734 -0.647385 -0.700984
                  CHANNELS 3 Zrotation Xrotation Yrotation
                  End Site
                  {
                    OFFSET 1.69225 -0.51767 -0.607171
                  }
                }
              }
            }
          }
        }
      }
    }
  }
  JOINT rButtock
  {
    OFFSET -8.77824 4.35084 1.2192
    CHANNELS 3 Zrotation Xrotation Yrotation
    JOINT rThigh
    {
      OFFSET 0 -1.70687 -2.19456
      CHANNELS 3 Zrotation Xrotation Yrotation
      JOINT rShin
      {
        OFFSET 0 -36.8199 0.73152
        CHANNELS 3 Zrotation Xrotation Yrotation
        JOINT rFoot
        {
          OFFSET 0.73152 -45.1104 -5.12064
          CHANNELS 3 Zrotation Xrotation Yrotation
          End Site
          {
            OFFSET -1.1221 -3.69964 12.103
          }
        }
      }
    }
  }
  JOINT lButtock
  {
    OFFSET 8.77824 4.35084 1.2192
    CHANNELS 3 Zrotation Xrotation Yrotation
    JOINT lThigh
    {
      OFFSET 0 -1.70687 -2.19456
      CHANNELS 3 Zrotation Xrotation Yrotation
      JOINT lShin
      {
        OFFSET 0 -36.8199 0.73152
        CHANNELS 3 Zrotation Xrotation Yrotation
        JOINT lFoot
        {
          OFFSET -0.73152 -45.1104 -5.12064
          CHANNELS 3 Zrotation Xrotation Yrotation
          End Site
          {
            OFFSET 1.1221 -3.69964 12.103
          }
        }
      }
    }
  }
}
MOTION
Frames:	4
Frame Time:	0.03333
0.015250000171363354 56.921199798583984 0.04170000180602074 -2.4564999528229237 49.9889999628067 -0.5155999911949039 -2.90389996021986 11.892300546169281 -4.531159959733486 7.656529918313026 -10.563300177454948 -0.5585719970986247 -8.777970224618912 20.998400151729584 -14.928099811077118 11.690500527620316 -29.174500107765198 -26.99690043926239 0.0 0.0 0.0 0.0 0.0 0.0 0.0 0.0 0.0 57.01479971408844 -2.2463399916887283 27.740298807621002 -27.495099306106567 -28.160499036312103 64.31939899921417 -0.7017069915309548 23.087698817253113 3.4346501156687737 5.224620736044017e-10 -1.6856915863172617e-09 -2.665387910383288e-09 8.601119816376013e-10 -3.0183855415089056e-09 -4.609432835422922e-09 5.224620736044017e-10 -1.6856915863172617e-09 -2.665387910383288e-09 7.7309102565050125 5.474880114197731 0.41731400415301323 5.224620736044017e-10 -1.6856915863172617e-09 -2.665387910383288e-09 2.905540131032467 0.9651830233633518 0.102901995414868 5.224620736044017e-10 -1.6856915863172617e-09 -2.665387910383288e-09 10.27859978377819 0.7318009994924068 0.025912300043273717 5.224620736044017e-10 -1.6856915863172617e-09 -2.665387910383288e-09 2.221670038998127 -0.733487019315362 -0.2089200052432716 0.0 0.0 0.0 -70.09439885616302 81.3666021823883 -7.255919873714447 28.028000593185425 -40.26170074939728 -84.3952989578247 29.299898743629456 -76.72280251979828 36.554399728775024 -1.63069557856943e-09 -1.2464909104892286e-08 -6.343725544866174e-10 -2.752997829702508e-09 -2.0330617189756595e-08 -1.1664269550237805e-09 -1.63069557856943e-09 -1.2464909104892286e-08 -6.343725544866174e-10 -7.7309102565050125 5.474880114197731 -0.41731400415301323 -1.63069557856943e-09 -1.2464909104892286e-08 -6.343725544866174e-10 -2.905540131032467 0.9651830233633518 -0.102901995414868 -1.63069557856943e-09 -1.2464909104892286e-08 -6.343725544866174e-10 -10.27859978377819 0.7318009994924068 -0.025912300043273717 -1.63069557856943e-09 -1.2464909104892286e-08 -6.343725544866174e-10 -2.221670038998127 -0.733487019315362 0.2089200052432716 0.0 0.0 0.0 -53.28989803791046 -45.25720238685608 -58.56839954853058 -1.245200028643012 61.252899169921875 1.2744900025427341 -0.3575219912454486 6.001419872045517 7.965879812836647 0.0 0.0 0.0 31.322600841522217 -26.484499275684357 34.77549970149994 2.6145100593566895 77.59720265865326 -5.50122007727623 10.765599757432938 -26.580500900745392 23.624500036239624
0.033930000849068165 56.8927001953125 0.08460000157356262 -2.393900044262409 50.00080168247223 -0.40689999237656593 -2.9171400144696236 11.829200237989426 -4.525399915874004 7.640729695558548 -10.577700287103653 -0.5552779929712415 -8.78081001341343 21.033799946308136 -14.945599883794785 11.710500419139862 -29.211300015449524 -27.027898728847504 0.0 0.0 0.0 0.0 0.0 0.0 0.0 0.0 0.0 57.00850188732147 -2.3621899634599686 27.803700864315033 -27.48470038175583 -28.11780095100403 64.25170004367828 -0.6920069921761751 22.938101291656494 3.409790061414242 -1.3940848475613166e-09 -2.941646926046815e-10 3.028617356903851e-09 -2.3577939600727404e-09 -3.632294465205632e-10 5.243805389909539e-09 -1.3940848475613166e-09 -2.941646926046815e-10 3.028617356903851e-09 7.7309102565050125 5.474880114197731 0.41731400415301323 -1.3940848475613166e-09 -2.941646926046815e-10 3.028617356903851e-09 2.905540131032467 0.9651830233633518 0.102901995414868 -1.3940848475613166e-09 -2.941646926046815e-10 3.028617356903851e-09 10.27859978377819 0.7318009994924068 0.025912300043273717 -1.3940848475613166e-09 -2.941646926046815e-10 3.028617356903851e-09 2.221670038998127 -0.733487019315362 -0.2089200052432716 0.0 0.0 0.0 -70.30739843845367 81.3722026348114 -7.016790211200714 28.02870064973831 -40.258398950099945 -84.3885987997055 29.011199176311493 -76.63249790668488 36.25769913196564 -5.88968873671547e-10 -2.018737177422736e-08 1.7547563402331434e-09 -1.113988901124685e-09 -3.513093815854518e-08 2.9416469260468148e-09 -5.88968873671547e-10 -2.018737177422736e-08 1.7547563402331434e-09 -7.7309102565050125 5.474880114197731 -0.41731400415301323 -5.88968873671547e-10 -2.018737177422736e-08 1.7547563402331434e-09 -2.905540131032467 0.9651830233633518 -0.102901995414868 -5.88968873671547e-10 -2.018737177422736e-08 1.7547563402331434e-09 -10.27859978377819 0.7318009994924068 -0.025912300043273717 -5.88968873671547e-10 -2.018737177422736e-08 1.7547563402331434e-09 -2.221670038998127 -0.733487019315362 0.2089200052432716 0.0 0.0 0.0 -53.544498682022095 -45.21069824695587 -58.92170011997223 -1.255129985511303 61.37689769268036 1.2812400329858065 -0.35990798380225897 5.964279994368553 8.160170316696167 0.0 0.0 0.0 31.470401287078857 -26.457999050617218 35.00009983778 2.62708006426692 77.62959837913513 -5.509610027074814 10.675199925899506 -26.66309952735901 23.413600623607635
0.04611000046133995 56.85169982910156 0.13120000064373016 -2.3616000451147556 50.02149760723114 -0.3363999933935702 -2.8928998857736588 11.778400540351868 -4.5333801582455635 7.618569955229759 -10.586499944329262 -0.5540160136297345 -8.765050023794174 21.052899956703186 -14.96550053358078 11.68700024485588 -29.25599902868271 -27.07089990377426 0.0 0.0 0.0 0.0 0.0 0.0 0.0 0.0 0.0 57.008399963378906 -2.4788999184966087 27.851401269435883 -27.478601038455963 -28.093199729919434 64.21250224113464 -0.6942279869690537 22.972299456596375 3.4154699742794037 -1.1197442972843419e-09 1.0871303857129533e-09 3.6067149267182685e-09 -1.8749801711237524e-09 2.036131263594143e-09 6.24140739091672e-09 -1.1197442972843419e-09 1.0871303857129533e-09 3.6067149267182685e-09 7.7309102565050125 5.474880114197731 0.41731400415301323 -1.1197442972843419e-09 1.0871303857129533e-09 3.6067149267182685e-09 2.905540131032467 0.9651830233633518 0.102901995414868 -1.1197442972843419e-09 1.0871303857129533e-09 3.6067149267182685e-09 10.27859978377819 0.7318009994924068 0.025912300043273717 -1.1197442972843419e-09 1.0871303857129533e-09 3.6067149267182685e-09 2.221670038998127 -0.733487019315362 -0.2089200052432716 0.0 0.0 0.0 -70.46280026435852 81.38890206813812 -6.865229979157448 28.030900061130524 -40.2469003200531 -84.36709821224213 28.9425989985466 -76.61090075969696 36.1871999502182 5.326938889993471e-10 -6.5637095758575015e-09 1.5296564015443437e-09 8.211031854443718e-10 -1.2175860319985077e-08 2.6193447411060333e-09 5.326938889993471e-10 -6.5637095758575015e-09 1.5296564015443437e-09 -7.7309102565050125 5.474880114197731 -0.41731400415301323 5.326938889993471e-10 -6.5637095758575015e-09 1.5296564015443437e-09 -2.905540131032467 0.9651830233633518 -0.102901995414868 5.326938889993471e-10 -6.5637095758575015e-09 1.5296564015443437e-09 -10.27859978377819 0.7318009994924068 -0.025912300043273717 5.326938889993471e-10 -6.5637095758575015e-09 1.5296564015443437e-09 -2.221670038998127 -0.733487019315362 0.2089200052432716 0.0 0.0 0.0 -53.78739953041077 -45.13110101222992 -59.292601346969604 -1.2663199938833714 61.514098048210144 1.288409996777773 -0.3613580111414194 5.918699875473976 8.35652008652687 0.0 0.0 0.0 31.59390091896057 -26.453699469566345 35.13220131397247 2.6443499699234962 77.68209993839264 -5.525349900126457 10.613299906253815 -26.7440003156662 23.256500959396362
0.052110000513494015 56.80390167236328 0.18160000070929527 -2.389799952507019 50.04939794540405 -0.31699999468401074 -2.8496599942445755 11.729800254106522 -4.541080109775066 7.594139724969864 -10.589799731969833 -0.554206995293498 -8.746819719672203 21.071899384260178 -14.9850994348526 11.673000454902649 -29.31959956884384 -27.110800445079803 0.0 0.0 0.0 0.0 0.0 0.0 0.0 0.0 0.0 56.99779987335205 -2.5858300365507603 27.879001200199127 -27.47769981622696 -28.08939903974533 64.20639753341675 -0.6984010012820363 23.036600053310394 3.426159918308258 -1.2789769243681803e-10 1.6473222785862163e-09 1.800799509510398e-09 -1.9248602711741114e-10 2.913509433710715e-09 3.1104718800634146e-09 -1.2789769243681803e-10 1.6473222785862163e-09 1.800799509510398e-09 7.7309102565050125 5.474880114197731 0.41731400415301323 -1.2789769243681803e-10 1.6473222785862163e-09 1.800799509510398e-09 2.905540131032467 0.9651830233633518 0.102901995414868 -1.2789769243681803e-10 1.6473222785862163e-09 1.800799509510398e-09 10.27859978377819 0.7318009994924068 0.025912300043273717 -1.2789769243681803e-10 1.6473222785862163e-09 1.800799509510398e-09 2.221670038998127 -0.733487019315362 -0.2089200052432716 0.0 0.0 0.0 -70.60140073299408 81.41069769859314 -6.747279837727547 28.033499121665955 -40.233701169490814 -84.34149920940399 28.903299272060394 -76.59840166568756 36.14680051803589 1.1926459819733282e-09 1.017042450257577e-08 2.916067387559451e-10 2.0239809828126454e-09 1.676227157076937e-08 5.678657544194721e-10 1.1926459819733282e-09 1.017042450257577e-08 2.916067387559451e-10 -7.7309102565050125 5.474880114197731 -0.41731400415301323 1.1926459819733282e-09 1.017042450257577e-08 2.916067387559451e-10 -2.905540131032467 0.9651830233633518 -0.102901995414868 1.1926459819733282e-09 1.017042450257577e-08 2.916067387559451e-10 -10.27859978377819 0.7318009994924068 -0.025912300043273717 1.1926459819733282e-09 1.017042450257577e-08 2.916067387559451e-10 -2.221670038998127 -0.733487019315362 0.2089200052432716 0.0 0.0 0.0 -54.00629997253418 -45.06149768829346 -59.64119732379913 -1.2785099633038044 61.66279971599579 1.2965400237590075 -0.3599019907414913 5.864350274205208 8.52698989212513 0.0 0.0 0.0 31.714501082897186 -26.468599140644073 35.21309942007065 2.665599938482046 77.75380074977875 -5.5482301488518715 10.576400086283684 -26.81500107049942 23.15190017223358
